<svg version="1" xmlns="http://www.w3.org/2000/svg" width="933.333" height="933.333" viewBox="0 0 700.000000 700.000000"><path d="M138 138.2c-43.4 3.2-73.9 31.4-79.9 73.8-.6 4.1-1.3 20.3-1.5 36-.6 32-1.7 40.7-6.6 50.6-6.2 12.7-16.7 17.7-39.1 18.8-11.8.6-10.9-2-10.9 33 0 25.7.2 30.5 1.5 31.6.8.7 4.5 1.4 8.2 1.6 17.3.9 23.9 2.5 31 7.6 5.8 4.2 9.8 10.2 12.2 18.3 2.9 9.9 3.1 12.6 3.7 44.5.5 31.6 1.3 39.7 5.4 51.7 10 29.9 34.1 50.1 66.7 55.8 10 1.8 44.7 2.1 50.5.5 4.9-1.4 9.4-5.3 10.9-9.4l1.2-3.4 17.5-.1c18.9 0 22.7-.7 26.3-4.9 3.7-4.2 4.1-5.4 15.5-42.2 5.8-19 11.9-38.8 13.6-44 1.6-5.2 3.8-12.2 4.8-15.5 1-3.3 5-16.2 8.9-28.7 7.7-24.6 12-38.5 37.6-121.3 25.8-83.3 29.3-94.9 32.6-107l1.1-4 3.4 10.5c3.7 11.2 27.3 86.7 38 121.5 3.6 11.5 9.5 30.4 13.1 41.9 3.5 11.5 6.7 21.6 6.9 22.5.2.9 1.9 6.5 3.8 12.6 1.9 6 4.8 15.3 6.4 20.5 1.7 5.2 10.3 32.9 19.1 61.5 8.9 28.6 17.1 55.1 18.3 58.8 1.2 3.8 3.4 8.6 5 10.8 4.5 6.2 7.6 7 27.9 7l17.7.1 2.4 4.5c1.6 3.2 3.6 5.3 6.3 6.7 3.7 2 5.6 2.1 27 2.1 25.5 0 33.4-1.1 46.5-6.4 11.6-4.8 18-9.1 27.5-18.7 7.6-7.6 9.8-10.7 14.3-19.5 4.9-9.7 8-19.6 9.7-30.9.4-2.5.8-16.3 1-30.7.4-31.1 1-38.1 4.6-49 5.3-16 16.3-22.5 40.1-23.6 5.1-.2 9.3-.9 10.2-1.7 1.4-1.1 1.6-5.3 1.6-31.5 0-25-.2-30.5-1.4-31.4-.8-.7-5.4-1.4-10.3-1.7-23-1.4-32.6-6.4-39-20.4-3.9-8.6-5.3-20.6-5.7-52-.5-32.1-1.3-38.5-6.7-53.3-9.1-25.1-28-42.2-55.2-50.1-10.9-3.2-18.7-3.9-40.3-3.9-19.7.1-21.3.3-26.1 3.9-5.5 4.2-6.5 8.6-6.1 29 .3 17.2.4 18.2 2.7 21.6 4.5 6.6 9.9 8 29.1 7.8 19.2-.2 27 5.1 30 20.4.8 3.8 1.3 17.4 1.4 35.6.2 16.2.5 30.4.9 31.5.3 1.1.8 4.1 1.1 6.6 2.1 16.9 15.1 38.8 30.1 51 3.6 2.9 6.5 5.6 6.5 6 0 .4-.9 1-2 1.4-3.4 1.1-16.5 14.9-21.9 23.1-2.8 4.3-6.4 11.2-8 15.4-5.5 14.1-6.3 20.7-6.6 53.5-.3 32.8-1.2 40-5.5 46.8-3.2 5.1-7.7 7.5-16.3 8.7-10.1 1.5-27.6 1.8-29.3.5-.8-.6-6.9-18.4-13.4-39.5-6.5-21.2-18.7-60.6-27-87.5-8.3-27-24.6-79.6-36.2-117-11.5-37.4-21.4-69.4-21.8-71-2.2-8.1-11.3-36.1-12.4-38.4-1.6-3-5.1-6.3-8.5-8.1-3.3-1.7-42.5-1.7-48.6 0-3.4.9-5.1.9-7.9 0-2.4-.8-11.1-1.2-24.5-1.2-23.2 0-24.6.3-29.8 6.7-3.1 3.7-4.3 6.8-9.3 23.5-3.1 10.3-11.2 36.7-15 48.5-1 3.3-3.4 11.2-5.4 17.5-1.9 6.3-6.5 21.2-10.1 33-3.7 11.8-8 25.8-9.5 31-1.6 5.2-4.2 14-6 19.5-2.9 9.1-4.4 14.1-8.4 27.5-.8 2.5-4.4 14.2-8.1 26-3.7 11.8-7.5 24.2-8.5 27.5-1 3.3-5.8 19-10.8 35-4.9 15.9-11.6 37.8-14.8 48.7l-5.9 19.6-9-.4c-28.2-1.3-33.1-2.6-37.5-10.1-4.4-7.4-5.1-13.9-5.4-47.3-.3-28.1-.5-32.4-2.4-40.3-2.5-10-7.2-20.9-12.9-29.4-3.9-6-14.3-16.9-20.1-21.3l-3.4-2.5 6.6-5.3c13.9-11.1 25.4-29.5 29.7-47.7 2-8.1 2.2-12.2 2.4-40 .3-41.7 2.1-49 12.7-54.3 4.9-2.4 8.3-2.9 29.3-3.5 8.7-.3 10.5-.7 14.1-2.9 6.8-4.4 7.8-7.7 8.1-26.9.1-10.1-.2-18.1-.9-20.3-1.6-5.1-5.9-9.3-11-10.7-4.9-1.4-27.6-1.8-41.8-.7z"/></svg>